<svg width="623" height="511" viewBox="0 0 623 511" fill="none" xmlns="http://www.w3.org/2000/svg">
<path d="M415.033 458.365C299.724 493.598 109.743 491.452 41.2221 384.864C-26.0551 280.211 -14.3083 110.416 101.136 120.445C208.332 129.757 148.661 27.7052 260.14 4.69536C371.618 -18.3145 520.406 44.6985 557.405 161.847C594.403 278.995 552.878 416.246 415.033 458.365Z" fill="#FEEFDC"/>
<path d="M134.964 446.219C134.964 446.219 182.995 431.532 195.972 402.194C208.949 372.857 157.022 360.718 157.751 360.836C158.48 360.954 102.146 366.815 97.0839 374.978C92.0216 383.141 70.078 417.017 76.6426 418.078C83.2075 419.139 134.964 446.219 134.964 446.219Z" fill="#ED7163"/>
<path d="M234.372 211.438C234.372 211.438 247.886 210.118 249.588 210.781C251.29 211.444 251.534 217.428 251.317 218.828C251.099 220.227 239.602 226.158 239.602 226.158L234.372 211.438Z" fill="#FFCC8F"/>
<path d="M222.592 210.957C222.592 210.957 240.805 209.411 244.849 216.801C248.894 224.191 233.545 240.421 223.827 240.347C214.109 240.273 222.592 210.957 222.592 210.957Z" fill="#FE9F73"/>
<path d="M240.706 230.69C241.04 230.348 248.832 222.246 244.728 215.778C240.672 209.385 223.909 210.413 223.197 210.46L223.257 211.368C223.426 211.357 240.192 210.326 243.96 216.266C247.677 222.126 240.131 229.976 240.054 230.054L240.706 230.69Z" fill="black"/>
<path d="M250.872 218.728C251.547 215.711 249.885 211.785 249.307 211.144C248.385 210.835 240.99 211.294 234.414 211.892L234.331 210.985C234.367 210.981 238.009 210.651 241.69 210.406C249.323 209.899 249.672 210.23 249.902 210.451C250.698 211.21 252.511 215.573 251.761 218.927L250.872 218.728Z" fill="black"/>
<path d="M144.52 442.127L140.275 468.386L141.174 468.532L145.419 442.272L144.52 442.127Z" fill="black"/>
<path d="M142.393 443.216C158.895 438.823 175.289 427.966 183.538 419.737C190.842 412.451 194.385 406.752 194.419 406.696L193.644 406.218C193.61 406.274 190.117 411.888 182.895 419.092C174.729 427.238 158.498 437.986 142.159 442.336L142.393 443.216Z" fill="black"/>
<path d="M108.204 190.593C108.204 190.525 108.206 190.457 108.21 190.39C108.302 188.106 110.092 186.25 112.371 186.071C112.438 186.065 112.506 186.061 112.574 186.057C112.597 186.056 112.619 186.053 112.641 186.053L213.42 184.158C213.442 184.157 213.464 184.16 213.487 184.16C213.555 184.16 213.623 184.162 213.69 184.166C215.974 184.258 217.832 186.046 218.011 188.325C218.017 188.393 218.022 188.46 218.025 188.528C218.026 188.551 218.029 188.572 218.03 188.595L221.97 398.138C222.011 400.318 220.277 402.116 218.099 402.157L116.161 404.074C113.983 404.115 112.183 402.383 112.142 400.203L108.201 190.66C108.201 190.638 108.204 190.616 108.204 190.593Z" fill="#D6ECF0"/>
<path d="M219.744 187.266L211.396 181.777L113.206 183.877L104.735 191.614C104.735 191.614 105.732 200.364 106.274 200.487C106.817 200.611 220.822 199.792 220.784 198.039C220.747 196.285 219.744 187.266 219.744 187.266Z" fill="#8BBECC"/>
<g opacity="0.5">
<path d="M209.3 192.119C209.312 192.735 209.688 193.257 210.22 193.484C210.411 193.566 210.623 193.611 210.845 193.606C211.065 193.602 211.273 193.55 211.462 193.46C211.985 193.216 212.344 192.677 212.332 192.062C212.316 191.224 211.623 190.558 210.788 190.574C209.951 190.59 209.285 191.281 209.3 192.119Z" fill="white"/>
<path d="M204.61 192.207C204.622 192.823 204.998 193.345 205.53 193.572C205.72 193.654 205.933 193.699 206.155 193.694C206.376 193.69 206.587 193.638 206.774 193.549C207.297 193.302 207.654 192.766 207.642 192.15C207.626 191.312 206.935 190.647 206.098 190.662C205.26 190.678 204.594 191.37 204.61 192.207Z" fill="white"/>
<path d="M199.92 192.295C199.932 192.911 200.308 193.434 200.84 193.66C201.03 193.743 201.243 193.787 201.465 193.783C201.686 193.778 201.897 193.726 202.084 193.637C202.607 193.391 202.964 192.854 202.952 192.238C202.936 191.401 202.245 190.735 201.408 190.751C200.57 190.767 199.904 191.458 199.92 192.295Z" fill="white"/>
</g>
<path d="M108.245 192.959C108.174 189.191 111.171 186.08 114.938 186.01L211.123 184.201C214.889 184.13 218.002 187.125 218.073 190.894L221.929 395.969C221.993 399.346 219.305 402.134 215.928 402.198L118.33 404.033C114.955 404.097 112.165 401.411 112.101 398.034L108.245 192.959ZM103.609 192.931L107.505 400.116C107.622 406.333 112.754 411.276 118.971 411.159L215.557 409.343C221.772 409.226 226.717 404.093 226.6 397.877L222.704 190.691C222.587 184.475 217.452 179.532 211.238 179.649L114.652 181.465C108.435 181.582 103.492 186.715 103.609 192.931Z" fill="#20111D"/>
<path d="M124.704 384.684C125.517 351.882 112.066 333.241 112.066 333.241C112.066 333.241 122.554 291.526 120.535 276.228C118.675 262.126 103.912 249.119 97.8332 261.523C97.3198 262.572 96.867 263.804 96.4911 265.231C96.4911 265.231 95.4537 276.255 92.9377 286.38C91.8915 290.597 90.587 294.657 88.9951 297.7C83.5806 308.053 70.9581 335.201 68.2227 347.484C65.4876 359.765 68.7844 413.44 68.7844 413.44L45.7009 511H133.844L144.965 442.223L100.102 421.123C100.102 421.123 123.893 417.484 124.704 384.684Z" fill="#FE9F73"/>
<path d="M83.4597 401.109C89.0714 400.632 106.944 397.065 110.11 401.728C113.277 406.391 119.563 406.024 119.563 406.024C119.563 406.024 109.568 423.308 117.931 429.508C126.294 435.708 94.8442 433.39 94.9894 432.491C95.1349 431.592 77.8479 401.585 83.4597 401.109Z" fill="#FE9F73"/>
<path d="M223.827 354.319C238.631 358.073 238.083 366.352 237.735 371.251C237.386 376.15 225.418 389.109 225.418 389.109C225.418 389.109 218.829 387.2 217.336 376.947C215.843 366.693 224.181 360.461 224.181 360.461L223.827 354.319Z" fill="#FE9F73"/>
<path d="M228.646 374.328C230.105 372.798 231.665 372.468 233.964 373.422C234.713 373.733 235.792 374.23 236.399 374.701C231.514 383.599 223.539 391.694 223.539 391.694L223.137 391.578C222.343 391.127 221.457 390.482 220.758 389.598C218.938 387.298 220.056 385.591 220.056 385.591L228.646 374.328Z" fill="#FFCC8F"/>
<path d="M222.214 321.131L222.546 312.755C242.123 319.801 240.285 330.955 239.166 337.551C238.046 344.148 220.105 360.139 220.105 360.139C220.105 360.139 211.423 356.679 210.753 342.579C210.083 328.478 222.214 321.131 222.214 321.131Z" fill="#FE9F73"/>
<path d="M226.436 340.522C228.616 338.64 230.775 338.4 233.766 339.997C234.74 340.517 236.138 341.334 236.899 342.052C229.099 353.472 217.216 363.395 217.216 363.395L216.687 363.185C215.669 362.468 214.553 361.477 213.722 360.185C211.558 356.826 213.299 354.66 213.299 354.66L226.436 340.522Z" fill="#FFCC8F"/>
<path d="M223.615 266.811C243.499 272.939 241.74 284.537 240.929 291.179C240.117 297.82 222.94 314.629 222.94 314.629C222.94 314.629 214.106 311.577 212.781 297.523C211.456 283.47 223.668 274.479 223.668 274.479L223.615 266.811Z" fill="#FE9F73"/>
<path d="M228.351 294.739C230.441 292.758 232.587 292.418 235.648 293.873C236.645 294.348 238.08 295.098 238.874 295.78C231.614 307.551 220.205 318.017 220.205 318.017L219.667 317.831C218.617 317.162 217.456 316.224 216.565 314.973C214.248 311.718 215.886 309.473 215.886 309.473L228.351 294.739Z" fill="#FFCC8F"/>
<path d="M224.209 319.767L224.59 320.595C224.486 320.643 214.238 325.469 211.879 335.939C209.514 346.432 214.183 353.745 214.231 353.818L213.469 354.317C213.266 354.008 208.537 346.625 210.991 335.738C213.45 324.821 224.102 319.817 224.209 319.767Z" fill="black"/>
<path d="M227.069 339.484L227.715 340.126C222.518 345.35 214.122 353.966 213.716 354.844C212.381 357.871 213.64 360.618 217.457 363.01L216.974 363.781C214.045 361.946 210.958 358.842 212.883 354.477C213.433 353.228 224.797 341.768 227.069 339.484Z" fill="black"/>
<path d="M225.921 272.402L226.443 273.149C226.345 273.217 216.682 280.054 213.789 289.471C210.91 298.84 216.738 308.521 216.797 308.618L216.021 309.094C215.77 308.685 209.917 298.972 212.918 289.204C215.905 279.481 225.513 272.687 225.921 272.402Z" fill="black"/>
<path d="M215.017 310.438C214.749 311.706 214.122 314.676 219.96 318.401L220.45 317.633C215.143 314.247 215.679 311.71 215.908 310.626C215.926 310.538 215.943 310.458 215.956 310.385C216.336 309.406 223.96 300.464 228.694 295.039L228.008 294.44C224.177 298.831 215.246 309.157 215.063 310.209C215.051 310.277 215.035 310.353 215.017 310.438ZM215.96 310.365C215.96 310.367 215.959 310.368 215.959 310.37C215.96 310.368 215.96 310.367 215.96 310.365Z" fill="black"/>
<path d="M226.279 358.721L226.698 359.529C226.623 359.568 219.204 363.499 217.867 371.669C216.531 379.829 220.717 384.771 220.759 384.82L220.073 385.418C219.888 385.206 215.56 380.124 216.968 371.522C218.378 362.905 225.957 358.888 226.279 358.721Z" fill="black"/>
<path d="M227.914 374.536L228.638 375.088L220.437 385.841C220.351 386.007 219.719 387.367 221.127 389.333C222.557 391.328 223.449 391.247 223.457 391.246C223.441 391.248 223.433 391.251 223.433 391.251L223.643 392.137C223.574 392.153 223.417 392.178 223.182 392.14C222.625 392.05 221.636 391.607 220.387 389.863C218.547 387.295 219.618 385.436 219.664 385.358L227.914 374.536Z" fill="black"/>
<path d="M223.534 190.4L222.624 190.407L223.213 274.5L224.123 274.494L223.534 190.4Z" fill="black"/>
<path d="M78.7752 396.377C79.0184 396.272 79.3011 396.384 79.4066 396.627C79.4442 396.714 83.2254 405.36 87.9599 408.392C88.1833 408.535 88.2482 408.832 88.1051 409.055C88.057 409.13 87.9914 409.188 87.9171 409.225C87.7706 409.299 87.5901 409.295 87.4419 409.201C82.4597 406.01 78.6836 397.374 78.5253 397.008C78.4198 396.764 78.5325 396.484 78.7752 396.377Z" fill="#000100"/>
<path d="M83.6078 398.725C83.6634 398.802 89.2209 406.429 94.4979 408.368C94.747 408.46 94.8746 408.735 94.7828 408.984C94.7393 409.104 94.6533 409.195 94.5481 409.248C94.4336 409.305 94.2964 409.317 94.1666 409.269C88.613 407.228 83.0627 399.611 82.8293 399.288C82.674 399.072 82.7223 398.773 82.9372 398.617C83.1526 398.461 83.4527 398.51 83.6078 398.725Z" fill="#000100"/>
<path d="M98.8767 261.544C100 261.726 98.236 268.359 98.0181 269.707C97.8 271.056 96.1515 278.399 96.1515 278.399L94.5544 278.803L94.5905 278.607C94.5422 278.37 97.0063 261.703 97.0063 261.703C97.0063 261.703 97.753 261.363 98.8767 261.544Z" fill="#ED7163"/>
<path d="M67.7785 347.385C70.5683 334.857 83.6193 306.997 88.5917 297.489C90.0066 294.785 91.3199 291.01 92.4959 286.27C94.9742 276.296 96.0274 265.298 96.0378 265.188L96.0413 265.151L96.0509 265.115C96.4241 263.699 96.8862 262.423 97.4245 261.323C99.8576 256.357 103.334 255.791 105.828 256.195C105.834 256.195 105.84 256.196 105.845 256.197C109.038 256.72 112.533 259.193 115.434 262.982C118.405 266.863 120.377 271.545 120.986 276.169C122.943 290.995 113.435 329.636 112.558 333.151C113.196 334.088 116.219 338.72 119.117 346.503C122.106 354.533 125.581 367.678 125.159 384.695C124.973 392.241 123.55 398.874 120.93 404.41C118.827 408.853 115.953 412.603 112.39 415.554C106.314 420.586 100.42 421.535 100.172 421.573L100.034 420.673C100.092 420.664 105.925 419.726 111.809 414.853C117.255 410.342 123.834 401.445 124.249 384.673C124.667 367.82 121.233 354.807 118.278 346.858C115.075 338.243 111.73 333.554 111.697 333.507L111.573 333.335L111.625 333.13C111.729 332.713 122.068 291.326 120.084 276.288C118.897 267.282 112.04 258.134 105.699 257.096C105.694 257.095 105.689 257.094 105.684 257.093C102.548 256.586 99.9754 258.187 98.2427 261.723C97.7355 262.76 97.2974 263.967 96.9412 265.312C96.871 266.035 95.8018 276.743 93.3801 286.49C92.1867 291.3 90.8473 295.143 89.399 297.911C84.4429 307.387 71.4389 335.139 68.6675 347.583C65.9775 359.66 69.2065 412.876 69.2394 413.412L69.2436 413.479L59.3352 455.355L58.4489 455.146L68.3263 413.4C68.1421 410.393 65.0837 359.483 67.7785 347.385Z" fill="black"/>
<path d="M96.123 251.951C98.0823 251.243 104.705 250.14 105.733 253.505C106.76 256.87 103.857 277.593 103.857 277.593L103.254 284.391C103.254 284.391 102.854 286.863 99.3016 287.441C96.0776 287.966 93.009 286.424 92.9375 286.38C93.1642 284.778 94.1637 252.66 96.123 251.951Z" fill="#FFCC8F"/>
<path d="M95.9681 251.523C97.3155 251.036 101.824 250.105 104.43 251.409C105.321 251.855 105.906 252.515 106.168 253.372L105.297 253.638C105.108 253.021 104.692 252.558 104.022 252.223C101.898 251.161 97.9215 251.799 96.3154 252.366C96.0564 252.648 95.4096 254.367 94.6751 263.938C94.209 270.017 93.8742 277.012 93.6526 281.641C93.5402 283.991 93.4697 285.445 93.4203 286.105C94.206 286.455 96.6667 287.41 99.2281 286.992L99.3746 287.891C98.2528 288.074 97.1548 288.019 96.1832 287.862C94.1812 287.539 92.7177 286.78 92.6985 286.768L92.4448 286.612L92.4865 286.317C92.5329 285.988 92.6256 284.051 92.743 281.598C92.971 276.833 93.3154 269.634 93.7997 263.449C94.6978 251.983 95.4931 251.695 95.9681 251.523Z" fill="black"/>
<path d="M56.0744 454.098C89.4265 467.948 129.362 467.635 141.997 467.127C144.054 467.044 145.773 468.595 145.511 470.295L142.717 488.363C142.547 489.466 141.563 490.32 140.257 490.514C101.883 496.225 60.6271 480.634 50.7785 476.587C49.4727 476.051 48.7006 474.875 48.8816 473.704L51.6186 456C51.8901 454.244 54.1207 453.287 56.0744 454.098Z" fill="#333333"/>
<path d="M137.861 474.773L138.49 474.871C139.015 474.952 139.374 475.442 139.293 475.967L138.372 481.921C138.291 482.446 137.801 482.805 137.276 482.724L136.647 482.626C136.122 482.545 135.763 482.054 135.844 481.53L136.765 475.576C136.846 475.052 137.337 474.692 137.861 474.773Z" fill="#212121"/>
<path d="M130.289 475.089L130.919 475.186C131.443 475.267 131.802 475.758 131.721 476.282L130.801 482.237C130.719 482.761 130.229 483.12 129.704 483.039L129.075 482.942C128.551 482.861 128.191 482.37 128.272 481.846L129.193 475.891C129.274 475.367 129.765 475.008 130.289 475.089Z" fill="#212121"/>
<path d="M122.722 475.375L123.351 475.473C123.876 475.554 124.235 476.045 124.154 476.569L123.233 482.524C123.152 483.048 122.661 483.407 122.137 483.326L121.508 483.229C120.983 483.148 120.624 482.657 120.705 482.132L121.626 476.178C121.707 475.654 122.197 475.294 122.722 475.375Z" fill="#212121"/>
<path d="M115.35 474.927L115.98 475.024C116.504 475.105 116.864 475.596 116.782 476.12L115.862 482.075C115.781 482.599 115.29 482.958 114.766 482.877L114.136 482.78C113.612 482.699 113.252 482.208 113.334 481.684L114.254 475.729C114.335 475.205 114.826 474.846 115.35 474.927Z" fill="#212121"/>
<path d="M107.818 474.986L108.447 475.083C108.972 475.164 109.331 475.655 109.25 476.179L108.329 482.134C108.248 482.658 107.758 483.018 107.233 482.936L106.604 482.839C106.079 482.758 105.72 482.267 105.801 481.743L106.722 475.788C106.803 475.264 107.294 474.905 107.818 474.986Z" fill="#212121"/>
<path d="M100.412 474.23L101.041 474.327C101.566 474.408 101.925 474.899 101.844 475.423L100.923 481.378C100.842 481.902 100.351 482.261 99.8271 482.18L99.1976 482.083C98.6733 482.002 98.3139 481.511 98.3951 480.987L99.3159 475.032C99.3968 474.508 99.8875 474.148 100.412 474.23Z" fill="#212121"/>
<path d="M93.0642 473.094L93.6937 473.191C94.218 473.272 94.5774 473.763 94.4962 474.287L93.5757 480.242C93.4945 480.766 93.0038 481.125 92.4795 481.044L91.85 480.947C91.3256 480.865 90.9663 480.375 91.0475 479.85L91.968 473.896C92.0491 473.372 92.5401 473.012 93.0642 473.094Z" fill="#212121"/>
<path d="M85.7756 471.578L86.4051 471.675C86.9294 471.756 87.2888 472.247 87.2076 472.771L86.2871 478.726C86.2059 479.251 85.7153 479.61 85.1909 479.529L84.5614 479.432C84.0371 479.35 83.6777 478.86 83.7589 478.335L84.6794 472.381C84.7603 471.856 85.2513 471.497 85.7756 471.578Z" fill="#212121"/>
<path d="M78.6129 469.247L79.2424 469.344C79.7667 469.425 80.1261 469.916 80.0449 470.44L79.1241 476.395C79.0432 476.92 78.5523 477.279 78.0279 477.198L77.3987 477.101C76.8743 477.02 76.515 476.529 76.5962 476.004L77.5167 470.05C77.5978 469.525 78.0885 469.166 78.6129 469.247Z" fill="#212121"/>
<path d="M71.3649 467.466L71.9944 467.564C72.5188 467.645 72.8781 468.135 72.7972 468.66L71.8767 474.615C71.7955 475.139 71.3048 475.498 70.7805 475.417L70.151 475.32C69.6267 475.239 69.2673 474.748 69.3485 474.224L70.269 468.269C70.3499 467.745 70.8406 467.385 71.3649 467.466Z" fill="#212121"/>
<path d="M64.2373 464.908L64.8668 465.005C65.3911 465.086 65.7505 465.577 65.6693 466.101L64.7488 472.056C64.6676 472.58 64.1769 472.94 63.6526 472.858L63.0231 472.761C62.4987 472.68 62.1394 472.189 62.2205 471.665L63.1411 465.71C63.2222 465.186 63.7129 464.827 64.2373 464.908Z" fill="#212121"/>
<path d="M57.1143 462.321L57.7439 462.418C58.2682 462.499 58.6275 462.99 58.5464 463.514L57.6259 469.468C57.5447 469.993 57.054 470.352 56.5297 470.271L55.9001 470.174C55.3758 470.093 55.0165 469.602 55.0976 469.078L56.0181 463.123C56.0993 462.599 56.59 462.24 57.1143 462.321Z" fill="#212121"/>
<path d="M117.61 466.928L108.656 465.544C108.132 465.463 107.625 465.666 107.267 466.042C106.543 465.97 105.816 465.896 105.082 465.816C105.726 464.203 107.317 463.174 108.983 463.431L117.937 464.816C119.899 465.119 121.229 467.09 120.901 469.211L117.557 490.836C117.23 492.956 115.367 494.434 113.404 494.131L104.45 492.746C103.107 492.539 102.061 491.549 101.64 490.266C102.564 490.391 103.493 490.511 104.428 490.623L104.441 490.54C104.547 490.583 104.659 490.615 104.777 490.634L113.731 492.018C114.615 492.155 115.454 491.488 115.602 490.534L118.945 468.908C119.093 467.953 118.494 467.065 117.61 466.928Z" fill="#FEB546"/>
<path d="M118.953 479.504C118.836 480.258 118.176 480.782 117.478 480.674L113.583 480.072L114.005 477.341L117.9 477.943C118.598 478.051 119.07 478.75 118.953 479.504Z" fill="white"/>
<path d="M553.011 411.102C553.011 411.102 503.976 421.983 478.231 402.845C452.485 383.707 491.694 347.563 491.118 348.025C490.541 348.487 542.452 325.835 550.879 330.445C559.306 335.055 595.09 353.724 589.9 357.882C584.711 362.039 553.011 411.102 553.011 411.102Z" fill="#ED7163"/>
<path d="M350.84 255.76C350.84 255.76 338.429 261.269 337.275 262.684C336.121 264.099 338.857 269.427 339.735 270.538C340.614 271.649 353.541 271.146 353.541 271.146L350.84 255.76Z" fill="#FFCC8F"/>
<path d="M360.855 249.538C360.855 249.538 344.244 257.165 344.365 265.588C344.486 274.012 365.838 280.575 374.258 275.723C382.679 270.871 360.855 249.538 360.855 249.538Z" fill="#FE9F73"/>
<path d="M354.813 275.634C354.354 275.501 343.581 272.289 343.966 264.639C344.346 257.077 359.441 249.713 360.083 249.404L360.479 250.224C360.326 250.297 345.228 257.66 344.875 264.685C344.527 271.615 354.961 274.729 355.066 274.76L354.813 275.634Z" fill="black"/>
<path d="M339.398 270.843C337.093 268.294 336.521 263.604 336.84 262.552C336.932 262.246 337.072 261.786 343.965 258.467C347.288 256.867 350.62 255.36 350.653 255.345L351.028 256.175C345.01 258.894 338.35 262.139 337.699 262.861C337.512 263.704 337.999 267.939 340.073 270.233L339.398 270.843Z" fill="black"/>
<path d="M545.066 412.149C528.541 416.456 508.926 415.084 497.694 411.986C487.747 409.244 481.858 406.03 481.8 405.998L482.239 405.2C482.297 405.232 488.102 408.397 497.936 411.109C509.055 414.175 528.474 415.532 544.837 411.268L545.066 412.149Z" fill="black"/>
<path d="M450.368 175.465C450.334 175.406 450.298 175.348 450.262 175.291C449.056 173.349 446.585 172.615 444.514 173.583C444.452 173.611 444.391 173.64 444.33 173.671C444.31 173.681 444.289 173.689 444.269 173.7L355.635 221.697C355.615 221.708 355.597 221.721 355.577 221.732C355.518 221.767 355.46 221.802 355.404 221.838C353.461 223.044 352.725 225.515 353.693 227.586C353.721 227.647 353.75 227.708 353.78 227.769C353.791 227.789 353.798 227.81 353.809 227.83L453.609 412.122C454.647 414.039 457.042 414.75 458.957 413.713L548.612 365.163C550.527 364.126 551.24 361.732 550.202 359.814L450.403 175.522C450.392 175.502 450.379 175.484 450.368 175.465Z" fill="#D6ECF0"/>
<path d="M351.662 227.518L356.223 218.629L442.706 172.084L453.889 174.645C453.889 174.645 457.332 182.75 456.921 183.125C456.51 183.499 356.895 238.95 356.064 237.406C355.233 235.861 351.662 227.518 351.662 227.518Z" fill="#8BBECC"/>
<g opacity="0.5">
<path d="M363.141 226.597C363.434 227.138 363.364 227.779 363.013 228.238C362.888 228.403 362.725 228.546 362.53 228.652C362.337 228.757 362.129 228.814 361.921 228.829C361.345 228.874 360.768 228.582 360.474 228.041C360.076 227.304 360.351 226.383 361.086 225.986C361.822 225.586 362.742 225.86 363.141 226.597Z" fill="white"/>
<path d="M367.266 224.363C367.56 224.904 367.49 225.545 367.138 226.004C367.013 226.169 366.85 226.313 366.655 226.418C366.46 226.524 366.251 226.582 366.045 226.597C365.468 226.64 364.893 226.348 364.6 225.807C364.201 225.07 364.475 224.151 365.211 223.752C365.948 223.353 366.867 223.626 367.266 224.363Z" fill="white"/>
<path d="M371.391 222.129C371.685 222.67 371.615 223.311 371.263 223.77C371.138 223.935 370.975 224.079 370.78 224.184C370.585 224.29 370.376 224.348 370.169 224.363C369.593 224.406 369.018 224.114 368.725 223.573C368.326 222.836 368.6 221.917 369.336 221.518C370.073 221.119 370.992 221.392 371.391 222.129Z" fill="white"/>
</g>
<path d="M549.169 357.907C550.778 360.877 549.672 364.589 546.704 366.196L460.866 412.679C457.896 414.288 454.184 413.185 452.575 410.215L354.904 229.852C353.109 226.537 354.342 222.397 357.655 220.603L442.249 174.793C445.562 172.999 449.703 174.229 451.498 177.544L549.169 357.907ZM440.26 170.698L355.312 216.699C349.846 219.659 347.813 226.49 350.774 231.958L449.451 414.177C452.411 419.644 459.244 421.675 464.709 418.715L549.657 372.713C555.124 369.752 557.156 362.922 554.195 357.455L455.518 175.236C452.557 169.769 445.727 167.737 440.26 170.698Z" fill="#20111D"/>
<path d="M594.454 349.974C594.454 349.974 570.881 301.64 562.451 292.3C554.019 282.959 529.661 265.552 519.849 259.21C516.964 257.346 513.829 254.455 510.841 251.301C503.663 243.729 497.33 234.647 497.33 234.647C496.3 233.591 495.299 232.742 494.335 232.081C482.935 224.281 476.494 242.873 481.824 256.062C487.603 270.369 517.28 301.504 517.28 301.504C517.28 301.504 514.757 324.352 531.625 352.497C548.489 380.641 570.986 372.088 570.986 372.088L542.339 412.551L622.76 511V380.514L594.454 349.974Z" fill="#FE9F73"/>
<path d="M575.608 346.473C570.49 348.823 553.18 354.523 552.721 360.141C552.263 365.759 546.611 368.536 546.611 368.536C546.611 368.536 563.824 378.653 559.601 388.169C555.378 397.684 581.604 380.174 581.035 379.463C580.466 378.752 580.727 344.123 575.608 346.473Z" fill="#FE9F73"/>
<path d="M430.405 374.905C419.372 385.465 423.928 392.4 426.644 396.491C429.36 400.583 446.16 405.964 446.16 405.964C446.16 405.964 450.954 401.057 447.202 391.398C443.45 381.74 433.124 380.425 433.124 380.425L430.405 374.905Z" fill="#FE9F73"/>
<path d="M436.069 394.691C434.046 394.078 432.526 394.561 430.995 396.523C430.497 397.162 429.802 398.126 429.505 398.835C438.14 404.172 449.069 407.288 449.069 407.288L449.361 406.989C449.83 406.205 450.283 405.207 450.456 404.093C450.907 401.196 449.093 400.261 449.093 400.261L436.069 394.691Z" fill="#FFCC8F"/>
<path d="M415.46 345.229L411.045 338.103C397.479 353.88 404.574 362.681 408.797 367.87C413.021 373.059 436.512 378.136 436.512 378.136C436.512 378.136 442.363 370.848 436 358.248C429.636 345.647 415.46 345.229 415.46 345.229Z" fill="#FE9F73"/>
<path d="M421.339 364.184C418.514 363.62 416.517 364.475 414.701 367.338C414.11 368.27 413.295 369.669 412.987 370.67C425.4 376.765 440.63 379.546 440.63 379.546L440.987 379.103C441.519 377.977 442.002 376.565 442.09 375.031C442.318 371.043 439.735 370.015 439.735 370.015L421.339 364.184Z" fill="#FFCC8F"/>
<path d="M387.48 298.648C373.195 313.776 380.441 323.003 384.418 328.383C388.396 333.763 411.625 339.928 411.625 339.928C411.625 339.928 417.809 332.921 412.039 320.038C406.269 307.155 391.212 305.348 391.212 305.348L387.48 298.648Z" fill="#FE9F73"/>
<path d="M397.118 325.285C394.323 324.591 392.288 325.351 390.341 328.127C389.707 329.031 388.828 330.391 388.473 331.376C400.589 338.042 415.674 341.529 415.674 341.529L416.051 341.103C416.635 340.003 417.183 338.615 417.342 337.087C417.755 333.113 415.223 331.967 415.223 331.967L397.118 325.285Z" fill="#FFCC8F"/>
<path d="M413.052 345.025L413.128 345.933C413.242 345.923 424.538 345.075 431.749 353.024C438.976 360.991 438.515 369.655 438.51 369.742L439.419 369.8C439.443 369.432 439.921 360.678 432.423 352.412C424.904 344.123 413.169 345.015 413.052 345.025Z" fill="black"/>
<path d="M420.276 363.592L420.03 364.469C427.126 366.455 438.677 369.817 439.463 370.381C442.116 372.357 442.374 375.368 440.23 379.33L441.031 379.763C442.676 376.724 443.834 372.501 440.008 369.65C438.914 368.835 423.379 364.461 420.276 363.592Z" fill="black"/>
<path d="M388.228 304.65L388.142 305.556C388.26 305.567 400.038 306.756 407.195 313.527C414.315 320.262 414.013 331.557 414.009 331.671L414.92 331.703C414.936 331.223 415.244 319.887 407.821 312.865C400.432 305.876 388.723 304.697 388.228 304.65Z" fill="black"/>
<path d="M416.302 332.201C415.625 331.376 402.766 326.79 397.269 324.856L396.967 325.714C403.759 328.104 414.798 332.129 415.612 332.795C415.659 332.851 415.713 332.913 415.773 332.981C416.505 333.811 418.222 335.755 415.271 341.316L416.076 341.742C419.322 335.625 417.313 333.35 416.455 332.378C416.398 332.313 416.346 332.255 416.302 332.201ZM415.601 332.783C415.6 332.782 415.6 332.78 415.599 332.779C415.6 332.78 415.601 332.782 415.601 332.783Z" fill="black"/>
<path d="M430.44 379.944L430.474 380.854C430.558 380.851 438.951 380.616 444.14 387.067C449.322 393.511 448.114 399.873 448.102 399.936L448.994 400.119C449.05 399.843 450.313 393.289 444.85 386.496C439.377 379.693 430.803 379.93 430.44 379.944Z" fill="black"/>
<path d="M436.808 394.512L436.45 395.349L448.884 400.667C449.041 400.768 450.261 401.641 450.004 404.045C449.743 406.486 448.927 406.855 448.919 406.858C448.934 406.852 448.942 406.85 448.942 406.85L449.196 407.725C449.264 407.705 449.413 407.649 449.598 407.5C450.039 407.148 450.681 406.275 450.909 404.142C451.245 401.001 449.397 399.91 449.319 399.866L436.808 394.512Z" fill="black"/>
<path d="M350.702 231.669L349.906 232.112L390.818 305.585L391.613 305.142L350.702 231.669Z" fill="black"/>
<path d="M577.354 340.047C577.091 340.075 576.9 340.312 576.928 340.576C576.938 340.67 577.907 350.057 575.281 355.028C575.157 355.263 575.246 355.553 575.481 355.677C575.56 355.719 575.645 355.736 575.728 355.732C575.892 355.724 576.047 355.632 576.13 355.477C578.893 350.246 577.925 340.87 577.882 340.474C577.854 340.209 577.618 340.021 577.354 340.047Z" fill="#000100"/>
<path d="M574.305 344.471C574.295 344.566 573.216 353.94 569.579 358.228C569.407 358.43 569.432 358.733 569.634 358.904C569.731 358.987 569.851 359.024 569.968 359.018C570.096 359.011 570.221 358.954 570.311 358.849C574.138 354.337 575.215 344.973 575.26 344.577C575.289 344.313 575.099 344.076 574.835 344.047C574.571 344.017 574.334 344.208 574.305 344.471Z" fill="#000100"/>
<path d="M493.438 232.614C492.549 233.326 497.352 238.229 498.206 239.295C499.06 240.361 504.113 245.939 504.113 245.939L505.701 245.504L505.573 245.35C505.499 245.121 495.143 231.831 495.143 231.831C495.143 231.831 494.326 231.902 493.438 232.614Z" fill="#ED7163"/>
<path d="M562.788 291.995C554.189 282.468 529.107 264.652 520.095 258.827C517.532 257.171 514.53 254.534 511.171 250.988C504.101 243.529 497.766 234.477 497.703 234.386L497.682 234.356L497.656 234.329C496.633 233.28 495.602 232.398 494.592 231.705C490.028 228.583 486.724 229.803 484.752 231.383C484.748 231.386 484.743 231.39 484.739 231.393C482.218 233.421 480.395 237.295 479.737 242.022C479.063 246.862 479.655 251.908 481.402 256.232C487.003 270.098 514.313 299.041 516.808 301.668C516.714 302.798 516.365 308.318 517.678 316.518C519.032 324.979 522.484 338.13 531.235 352.731C535.114 359.205 539.621 364.277 544.628 367.804C548.647 370.634 552.994 372.482 557.55 373.295C565.316 374.681 570.913 372.603 571.147 372.514L570.824 371.663C570.769 371.684 565.23 373.741 557.71 372.398C550.748 371.156 540.64 366.654 532.016 352.263C523.35 337.803 519.928 324.787 518.583 316.413C517.126 307.339 517.727 301.61 517.733 301.553L517.756 301.343L517.61 301.19C517.314 300.879 487.928 269.955 482.246 255.891C478.843 247.468 480.303 236.13 485.31 232.103C485.314 232.099 485.318 232.097 485.322 232.093C487.801 230.107 490.828 230.233 494.078 232.457C495.03 233.109 496.006 233.944 496.978 234.938C497.396 235.533 503.601 244.325 510.51 251.614C513.918 255.212 516.977 257.896 519.601 259.592C528.583 265.397 553.571 283.141 562.112 292.605C570.404 301.79 593.809 349.691 594.045 350.173L594.074 350.234L620.018 378.274L620.686 377.656L594.833 349.714C593.512 347.006 571.094 301.197 562.788 291.995Z" fill="black"/>
<path d="M491.108 222.909C489.054 223.258 482.747 225.561 483.511 228.996C484.274 232.43 497.009 249.034 497.009 249.034L500.883 254.652C500.883 254.652 502.449 256.607 505.826 255.36C508.89 254.229 510.8 251.375 510.841 251.301C509.854 250.018 493.162 222.56 491.108 222.909Z" fill="#FFCC8F"/>
<path d="M491.032 222.46C489.619 222.7 485.237 224.111 483.612 226.529C483.055 227.357 482.872 228.22 483.066 229.094L483.955 228.897C483.815 228.267 483.95 227.658 484.367 227.037C485.692 225.066 489.467 223.662 491.144 223.365C491.508 223.483 492.918 224.66 498.272 232.627C501.673 237.688 505.41 243.611 507.884 247.53C509.139 249.519 509.917 250.75 510.285 251.3C509.773 251.991 508.102 254.034 505.667 254.933L505.983 255.787C507.049 255.393 507.978 254.805 508.746 254.19C510.328 252.922 511.229 251.54 511.239 251.521L511.383 251.26L511.201 251.024C510.999 250.761 509.964 249.12 508.654 247.044C506.108 243.01 502.261 236.914 498.793 231.77C492.363 222.234 491.53 222.376 491.032 222.46Z" fill="black"/>
<path d="M299.692 35.0168C303.766 30.4993 308.95 17.8491 302.502 15.2846C297.701 13.3744 296.134 18.5643 295.823 19.8607C294.929 18.8716 291.068 15.0667 287.768 19.0433C283.337 24.3838 293.948 33.0043 299.688 35.0173L299.692 35.0168Z" fill="#F7597F"/>
<path d="M80.6964 153.26C83.8464 149.767 87.855 139.986 82.8693 138.004C79.1567 136.527 77.9455 140.54 77.7052 141.542C77.0135 140.777 74.0285 137.835 71.477 140.91C68.0507 145.039 76.255 151.704 80.6934 153.261L80.6964 153.26Z" fill="#FD7583"/>
<path d="M51.0287 212.082L49.0037 207.959L46.9627 212.074L42.4159 212.726L45.6989 215.938L44.9137 220.464L48.9837 218.334L53.0454 220.48L52.2776 215.951L55.5731 212.751L51.0287 212.082Z" fill="#FBC758"/>
<path d="M519.89 164.674L526.083 174.69L530.266 163.682L541.705 160.886L532.528 153.507L533.404 141.764L523.551 148.212L512.653 143.749L515.74 155.113L508.129 164.098L519.89 164.674Z" fill="#FEC786"/>
<path d="M239.69 47.4959C237.461 48.7512 234.099 51.0335 234.308 55.37L237.728 55.2258C237.768 53.7203 238.138 52.878 239.153 51.9994C250.726 45.7029 240.053 42.1513 246.144 37.6956L244.407 34.7455C236.72 39.1164 244.422 45.304 239.69 47.4959Z" fill="#FEC786"/>
<path d="M483.33 80.14C473.325 88.7104 484.5 89.9582 479.472 95.586L481.784 98.1089C488.299 92.3113 479.829 87.8419 483.466 84.9135C485.55 82.9854 488.477 80.344 487.365 75.8335L484.051 76.6875C484.325 78.1682 484.139 79.0689 483.33 80.14Z" fill="#FD7583"/>
<path d="M175.461 130.231C181.187 142.095 185.251 131.612 189.406 137.912L192.436 136.322C188.498 128.541 182.011 135.585 180.111 131.32C178.78 128.813 176.975 125.307 172.33 125.228L172.308 128.651C173.809 128.764 174.632 129.175 175.461 130.231Z" fill="#FD7583"/>
<path d="M287.942 210.504L287.179 210.778L287.043 210.396C286.542 208.997 286.07 207.56 285.64 206.125L285.524 205.737L286.3 205.504L286.416 205.892C286.841 207.314 287.309 208.737 287.806 210.123L287.942 210.504ZM285.349 201.989L284.562 202.179L284.467 201.785C284.113 200.318 283.8 198.838 283.537 197.387L283.464 196.988L284.261 196.844L284.334 197.243C284.594 198.679 284.904 200.143 285.254 201.595L285.349 201.989ZM331.867 172.987C331.866 172.988 331.866 172.988 331.865 172.988C331.275 173.291 330.636 173.546 329.969 173.747L329.581 173.863L329.348 173.088L329.736 172.971C330.357 172.784 330.949 172.548 331.496 172.267C331.496 172.267 331.497 172.267 331.498 172.266C332.216 171.898 332.876 171.444 333.459 170.918L333.76 170.647L334.303 171.248L334.002 171.52C333.367 172.093 332.648 172.587 331.867 172.987ZM325.792 174.326L325.389 174.278C323.882 174.095 322.495 173.374 321.265 172.132L320.98 171.845L321.555 171.274L321.84 171.562C322.939 172.67 324.166 173.313 325.487 173.473L325.889 173.522L325.792 174.326ZM336.468 168.101L335.717 167.796L335.869 167.421C336.384 166.155 336.683 164.736 336.757 163.201L336.777 162.797L337.586 162.836L337.567 163.241C337.488 164.866 337.169 166.375 336.62 167.726L336.468 168.101ZM283.724 193.248L282.919 193.342L282.872 192.939C282.695 191.426 282.571 189.917 282.503 188.455L282.485 188.05L283.294 188.013L283.313 188.418C283.38 189.861 283.502 191.351 283.677 192.845L283.724 193.248ZM319.658 168.333L318.915 168.658L318.753 168.287C318.182 166.983 317.738 165.518 317.433 163.932L317.357 163.534L318.152 163.381L318.229 163.779C318.522 165.306 318.948 166.713 319.495 167.962L319.658 168.333ZM337.278 159.093L336.484 159.255L336.403 158.858C336.115 157.449 335.667 156.046 335.071 154.69L334.908 154.319L335.65 153.993L335.813 154.364C336.432 155.773 336.898 157.231 337.197 158.696L337.278 159.093ZM283.262 184.384L282.452 184.359L282.465 183.954C282.513 182.431 282.625 180.92 282.798 179.462L282.846 179.06L283.65 179.155L283.603 179.557C283.432 180.992 283.322 182.48 283.275 183.98L283.262 184.384ZM317.777 159.809L316.967 159.831L316.957 159.426C316.917 157.959 316.982 156.439 317.149 154.908L317.193 154.506L317.998 154.593L317.954 154.996C317.791 156.491 317.728 157.974 317.766 159.404L317.777 159.809ZM333.143 151.213L332.906 150.884C332.57 150.416 332.214 149.961 331.848 149.533C331.269 148.855 330.636 148.229 329.968 147.672L329.657 147.413L330.176 146.79L330.487 147.05C331.19 147.636 331.855 148.294 332.464 149.006C332.845 149.452 333.216 149.925 333.565 150.411L333.801 150.74L333.143 151.213ZM284.248 175.586L283.456 175.413L283.542 175.017C283.866 173.534 284.267 172.071 284.733 170.668L284.861 170.283L285.63 170.539L285.502 170.923C285.045 172.3 284.652 173.735 284.334 175.189L284.248 175.586ZM318.61 151.036L317.821 150.852L317.913 150.457C318.25 149.013 318.678 147.556 319.184 146.128L319.32 145.746L320.084 146.017L319.949 146.399C319.452 147.799 319.033 149.226 318.702 150.642L318.61 151.036ZM286.961 167.182L286.226 166.84L286.396 166.473C287.03 165.108 287.749 163.771 288.534 162.499L288.747 162.155L289.436 162.58L289.223 162.925C288.455 164.17 287.752 165.478 287.131 166.814L286.961 167.182ZM326.647 145.561L326.275 145.4C324.977 144.837 323.568 144.439 322.089 144.215L321.688 144.155L321.809 143.354L322.21 143.414C323.759 143.648 325.235 144.066 326.597 144.657L326.969 144.818L326.647 145.561ZM291.51 159.626L290.874 159.124L291.124 158.806C292.051 157.63 293.047 156.486 294.085 155.406L294.366 155.114L294.95 155.675L294.67 155.967C293.65 157.028 292.672 158.152 291.761 159.307L291.51 159.626ZM321.472 142.678L320.741 142.328L320.915 141.963C321.556 140.624 322.278 139.29 323.062 137.999L323.272 137.653L323.965 138.074L323.754 138.42C322.985 139.688 322.275 140.998 321.647 142.313L321.472 142.678ZM318.122 144.017L317.717 144.043C316.309 144.131 314.847 144.355 313.373 144.706L312.978 144.8L312.791 144.012L313.185 143.917C314.704 143.555 316.212 143.326 317.666 143.234L318.071 143.209L318.122 144.017ZM297.583 153.19L297.057 152.574L297.364 152.311C298.513 151.329 299.715 150.403 300.937 149.558L301.27 149.327L301.731 149.993L301.398 150.224C300.198 151.054 299.019 151.963 297.891 152.927L297.583 153.19ZM309.546 145.888L309.169 146.036C307.833 146.562 306.486 147.191 305.166 147.906L304.81 148.098L304.424 147.386L304.78 147.193C306.125 146.464 307.505 145.82 308.873 145.282L309.25 145.134L309.546 145.888ZM325.993 135.083L325.352 134.588L325.599 134.267C326.5 133.099 327.503 131.957 328.58 130.873L328.866 130.586L329.44 131.157L329.155 131.444C328.102 132.504 327.121 133.621 326.24 134.762L325.993 135.083ZM361.125 116.158L360.728 116.24C359.282 116.536 357.823 116.873 356.393 117.243L356.001 117.344L355.798 116.56L356.19 116.458C357.633 116.085 359.105 115.745 360.566 115.446L360.962 115.365L361.125 116.158ZM352.502 118.345L352.115 118.467C350.685 118.918 349.271 119.407 347.913 119.922L347.534 120.066L347.247 119.308L347.626 119.164C348.998 118.644 350.427 118.149 351.872 117.694L352.258 117.572L352.502 118.345ZM332.129 128.741L331.621 128.11L331.936 127.856C333.075 126.939 334.301 126.047 335.582 125.204L335.92 124.982L336.365 125.659L336.027 125.881C334.768 126.71 333.563 127.586 332.444 128.487L332.129 128.741ZM344.178 121.459L343.809 121.626C342.443 122.247 341.125 122.901 339.833 123.604L339.478 123.797L339.09 123.086L339.446 122.892C340.753 122.18 342.089 121.517 343.474 120.888L343.843 120.721L344.178 121.459Z" fill="#49263E"/>
<path d="M365.856 118.656L367.108 113.768C367.108 113.768 381.005 104.764 381.158 104.557C381.311 104.35 386.956 96.7483 386.956 96.7483L377.182 100.984L362.784 111.043L365.856 118.656Z" fill="#EF9D43"/>
<path d="M355.437 105.218L386.956 96.7483L362.784 111.043L355.437 105.218Z" fill="#FEC786"/>
<path d="M367.108 113.768L374.876 119.999L386.956 96.7483L367.108 113.768Z" fill="#FEC786"/>
<path d="M559.325 433.026L558.614 433.596L541.983 412.836L542.497 411.979L559.325 433.026Z" fill="black"/>
<path d="M169.595 318.796H270.506C271.956 318.796 273.131 317.62 273.131 316.171V255.959C273.131 254.509 271.955 253.335 270.506 253.335H169.595C168.145 253.335 166.97 254.509 166.97 255.959V316.171C166.97 317.621 168.145 318.796 169.595 318.796Z" fill="#9DF2CD"/>
<path d="M176.939 265.253H265.46C266.073 265.253 266.57 264.757 266.57 264.144C266.57 263.531 266.073 263.035 265.46 263.035H176.939C176.327 263.035 175.83 263.531 175.83 264.144C175.83 264.757 176.327 265.253 176.939 265.253Z" fill="#7FC6A6"/>
<path d="M176.939 277.852H265.46C266.073 277.852 266.57 277.356 266.57 276.743C266.57 276.13 266.073 275.634 265.46 275.634H176.939C176.327 275.634 175.83 276.13 175.83 276.743C175.83 277.356 176.327 277.852 176.939 277.852Z" fill="#7FC6A6"/>
<path d="M207.944 290.451H265.46C266.073 290.451 266.57 289.955 266.57 289.342C266.57 288.729 266.073 288.233 265.46 288.233H207.944C207.331 288.233 206.835 288.729 206.835 289.342C206.835 289.955 207.331 290.451 207.944 290.451Z" fill="#7FC6A6"/>
<path d="M176.282 290.451H199.234C199.847 290.451 200.344 289.955 200.344 289.342C200.344 288.729 199.847 288.233 199.234 288.233H176.282C175.669 288.233 175.173 288.729 175.173 289.342C175.173 289.955 175.669 290.451 176.282 290.451Z" fill="#7FC6A6"/>
<path d="M229.307 303.05H265.461C266.073 303.05 266.57 302.554 266.57 301.941C266.57 301.328 266.073 300.832 265.461 300.832H229.307C228.694 300.832 228.198 301.328 228.198 301.941C228.198 302.554 228.694 303.05 229.307 303.05Z" fill="#7FC6A6"/>
<path d="M176.282 303.05H221.2C221.813 303.05 222.31 302.554 222.31 301.941C222.31 301.328 221.813 300.832 221.2 300.832H176.282C175.669 300.832 175.173 301.328 175.173 301.941C175.173 302.554 175.669 303.05 176.282 303.05Z" fill="#7FC6A6"/>
<path d="M199.433 315.902C199.324 316.34 175.173 337.923 175.173 337.923L181.677 315.449L199.433 315.902Z" fill="#9DF2CD"/>
<path d="M220.471 128.5H302.397C303.574 128.5 304.528 127.546 304.528 126.369V77.4858C304.528 76.309 303.574 75.3548 302.397 75.3548H220.471C219.294 75.3548 218.34 76.3087 218.34 77.4858V126.37C218.34 127.546 219.294 128.5 220.471 128.5Z" fill="#C2F2DD"/>
<path d="M226.434 85.0312H298.301C298.799 85.0312 299.201 84.6281 299.201 84.1307C299.201 83.6334 298.798 83.2302 298.301 83.2302H226.434C225.936 83.2302 225.533 83.6334 225.533 84.1307C225.533 84.6281 225.936 85.0312 226.434 85.0312Z" fill="#7FC6A6"/>
<path d="M226.434 95.26H298.301C298.799 95.26 299.201 94.8569 299.201 94.3595C299.201 93.8621 298.798 93.459 298.301 93.459H226.434C225.936 93.459 225.533 93.8621 225.533 94.3595C225.533 94.8569 225.936 95.26 226.434 95.26Z" fill="#7FC6A6"/>
<path d="M251.605 105.488H298.301C298.799 105.488 299.201 105.085 299.201 104.588C299.201 104.091 298.798 103.688 298.301 103.688H251.605C251.108 103.688 250.705 104.091 250.705 104.588C250.705 105.085 251.108 105.488 251.605 105.488Z" fill="#7FC6A6"/>
<path d="M225.9 105.488H244.534C245.032 105.488 245.435 105.085 245.435 104.588C245.435 104.091 245.032 103.688 244.534 103.688H225.9C225.403 103.688 225 104.091 225 104.588C225 105.085 225.403 105.488 225.9 105.488Z" fill="#7FC6A6"/>
<path d="M268.949 115.717H298.301C298.799 115.717 299.201 115.314 299.201 114.817C299.201 114.319 298.798 113.916 298.301 113.916H268.949C268.452 113.916 268.049 114.319 268.049 114.817C268.049 115.314 268.452 115.717 268.949 115.717Z" fill="#7FC6A6"/>
<path d="M225.9 115.717H262.367C262.865 115.717 263.268 115.314 263.268 114.817C263.268 114.319 262.865 113.916 262.367 113.916H225.9C225.403 113.916 225 114.319 225 114.817C225 115.314 225.403 115.717 225.9 115.717Z" fill="#7FC6A6"/>
<path d="M244.696 126.151C244.607 126.507 225 144.029 225 144.029L230.28 125.783L244.696 126.151Z" fill="#C2F2DD"/>
<path d="M148.23 216.181H249.683C250.964 216.181 252.003 215.142 252.003 213.861V169.988C252.003 168.707 250.964 167.668 249.683 167.668H148.23C146.949 167.668 145.91 168.707 145.91 169.988V213.861C145.91 215.143 146.949 216.181 148.23 216.181Z" fill="#FFE2BF"/>
<path d="M154.722 179.992H245.224C245.765 179.992 246.204 179.553 246.204 179.011C246.204 178.469 245.765 178.031 245.224 178.031H154.722C154.181 178.031 153.742 178.47 153.742 179.011C153.742 179.553 154.181 179.992 154.722 179.992Z" fill="#F7AB48"/>
<path d="M182.127 191.128H245.223C245.765 191.128 246.204 190.689 246.204 190.147C246.204 189.605 245.765 189.167 245.223 189.167H182.127C181.585 189.167 181.146 189.606 181.146 190.147C181.146 190.689 181.585 191.128 182.127 191.128Z" fill="#F7AB48"/>
<path d="M154.141 191.128H174.429C174.97 191.128 175.409 190.689 175.409 190.147C175.409 189.605 174.97 189.167 174.429 189.167H154.141C153.6 189.167 153.161 189.606 153.161 190.147C153.161 190.689 153.6 191.128 154.141 191.128Z" fill="#F7AB48"/>
<path d="M201.01 202.264H245.223C245.765 202.264 246.204 201.825 246.204 201.283C246.204 200.742 245.765 200.303 245.223 200.303H201.01C200.468 200.303 200.03 200.742 200.03 201.283C200.03 201.825 200.468 202.264 201.01 202.264Z" fill="#F7AB48"/>
<path d="M154.141 202.264H193.844C194.386 202.264 194.825 201.825 194.825 201.283C194.825 200.742 194.386 200.303 193.844 200.303H154.141C153.6 200.303 153.161 200.742 153.161 201.283C153.161 201.825 153.6 202.264 154.141 202.264Z" fill="#F7AB48"/>
<path d="M174.604 213.623C174.507 214.011 153.161 233.087 153.161 233.087L158.91 213.223L174.604 213.623Z" fill="#FFE2BF"/>
<path d="M476.272 343.273H353.804C352.045 343.273 350.619 341.846 350.619 340.087V284.212C350.619 282.453 352.045 281.027 353.804 281.027H476.272C478.032 281.027 479.458 282.453 479.458 284.212V340.087C479.458 341.846 478.032 343.273 476.272 343.273Z" fill="#FDC8CE"/>
<path d="M467.358 295.492H359.927C359.183 295.492 358.581 294.889 358.581 294.146C358.581 293.402 359.183 292.799 359.927 292.799H467.358C468.102 292.799 468.705 293.402 468.705 294.146C468.705 294.889 468.102 295.492 467.358 295.492Z" fill="#FD7583"/>
<path d="M467.358 310.783H359.927C359.183 310.783 358.581 310.18 358.581 309.436C358.581 308.693 359.183 308.09 359.927 308.09H467.358C468.102 308.09 468.705 308.693 468.705 309.436C468.705 310.18 468.102 310.783 467.358 310.783Z" fill="#FD7583"/>
<path d="M429.731 326.073H359.927C359.183 326.073 358.581 325.47 358.581 324.727C358.581 323.983 359.183 323.38 359.927 323.38H429.731C430.474 323.38 431.077 323.983 431.077 324.727C431.077 325.47 430.474 326.073 429.731 326.073Z" fill="#FD7583"/>
<path d="M468.156 326.073H440.301C439.557 326.073 438.955 325.47 438.955 324.727C438.955 323.983 439.557 323.38 440.301 323.38H468.156C468.9 323.38 469.502 323.983 469.502 324.727C469.502 325.47 468.9 326.073 468.156 326.073Z" fill="#FD7583"/>
<path d="M440.06 339.761C440.193 340.292 469.502 366.486 469.502 366.486L461.609 339.211L440.06 339.761Z" fill="#FDC8CE"/>
<path d="M445.241 72.4207H354.311C353.005 72.4207 351.946 71.3619 351.946 70.0556V28.5699C351.946 27.2636 353.005 26.2048 354.311 26.2048H445.241C446.547 26.2048 447.606 27.2636 447.606 28.5699V70.0556C447.606 71.3617 446.547 72.4207 445.241 72.4207Z" fill="#FDC8CE"/>
<path d="M438.622 36.9449H358.857C358.305 36.9449 357.858 36.4974 357.858 35.9453C357.858 35.3932 358.305 34.9458 358.857 34.9458H438.622C439.175 34.9458 439.622 35.3932 439.622 35.9453C439.622 36.4972 439.175 36.9449 438.622 36.9449Z" fill="#FD7583"/>
<path d="M438.622 48.2976H358.857C358.305 48.2976 357.858 47.8502 357.858 47.2981C357.858 46.746 358.305 46.2985 358.857 46.2985H438.622C439.175 46.2985 439.622 46.746 439.622 47.2981C439.622 47.8502 439.175 48.2976 438.622 48.2976Z" fill="#FD7583"/>
<path d="M410.685 59.6503H358.857C358.305 59.6503 357.858 59.2029 357.858 58.6508C357.858 58.0987 358.305 57.6512 358.857 57.6512H410.685C411.237 57.6512 411.684 58.0987 411.684 58.6508C411.684 59.2029 411.237 59.6503 410.685 59.6503Z" fill="#FD7583"/>
<path d="M439.215 59.6503H418.533C417.981 59.6503 417.534 59.2029 417.534 58.6508C417.534 58.0987 417.981 57.6512 418.533 57.6512H439.215C439.767 57.6512 440.214 58.0987 440.214 58.6508C440.214 59.2029 439.767 59.6503 439.215 59.6503Z" fill="#FD7583"/>
<path d="M418.354 69.8132C418.452 70.2081 440.214 89.6557 440.214 89.6557L434.353 69.405L418.354 69.8132Z" fill="#FDC8CE"/>
<path d="M420.684 239.535H322.611C321.589 239.535 320.76 238.707 320.76 237.684V195.231C320.76 194.209 321.589 193.38 322.611 193.38H420.684C421.706 193.38 422.534 194.209 422.534 195.231V237.684C422.534 238.706 421.706 239.535 420.684 239.535Z" fill="#AEE2E8"/>
<path d="M415.505 201.784H326.168C325.736 201.784 325.386 201.434 325.386 201.002C325.386 200.57 325.736 200.22 326.168 200.22H415.505C415.937 200.22 416.287 200.57 416.287 201.002C416.287 201.434 415.937 201.784 415.505 201.784Z" fill="#61A3C5"/>
<path d="M415.505 210.667H326.168C325.736 210.667 325.386 210.317 325.386 209.885C325.386 209.453 325.736 209.103 326.168 209.103H415.505C415.937 209.103 416.287 209.453 416.287 209.885C416.287 210.317 415.937 210.667 415.505 210.667Z" fill="#61A3C5"/>
<path d="M393.645 219.55H326.168C325.736 219.55 325.386 219.2 325.386 218.768C325.386 218.336 325.736 217.986 326.168 217.986H393.645C394.077 217.986 394.427 218.336 394.427 218.768C394.427 219.2 394.077 219.55 393.645 219.55Z" fill="#61A3C5"/>
<path d="M415.968 219.55H399.786C399.354 219.55 399.004 219.2 399.004 218.768C399.004 218.336 399.354 217.986 399.786 217.986H415.968C416.4 217.986 416.75 218.336 416.75 218.768C416.751 219.2 416.401 219.55 415.968 219.55Z" fill="#61A3C5"/>
<path d="M378.582 228.433H326.168C325.736 228.433 325.386 228.083 325.386 227.651C325.386 227.219 325.736 226.869 326.168 226.869H378.582C379.014 226.869 379.364 227.219 379.364 227.651C379.364 228.083 379.015 228.433 378.582 228.433Z" fill="#61A3C5"/>
<path d="M415.968 228.433H384.299C383.867 228.433 383.517 228.083 383.517 227.651C383.517 227.219 383.867 226.869 384.299 226.869H415.968C416.4 226.869 416.75 227.219 416.75 227.651C416.751 228.083 416.401 228.433 415.968 228.433Z" fill="#61A3C5"/>
<path d="M399.646 237.494C399.723 237.803 414.109 254.446 414.109 254.446L412.165 237.175L399.646 237.494Z" fill="#AEE2E8"/>
</svg>
